<svg xmlns="http://www.w3.org/2000/svg" width="32" height="32" viewBox="0 0 64 64"><defs><radialGradient id="s" cx="40%" cy="35%" r="60%"><stop offset="0%" stop-color="#A52A2A" stop-opacity="0.3"/><stop offset="100%" stop-color="#4A0E0E" stop-opacity="0.3"/></radialGradient></defs><circle cx="32" cy="32" r="28" fill="#8B1A1A"/><circle cx="32" cy="32" r="28" fill="url(#s)"/><path d="M7 31 Q19.5 25 32 31 T57 31" fill="none" stroke="#F5E6D0" stroke-width="1.8" stroke-linecap="round"/><path d="M7 35 Q19.5 29 32 35 T57 35" fill="none" stroke="#F5E6D0" stroke-width="1.8" stroke-linecap="round"/><line x1="11" y1="28" x2="11" y2="36" stroke="#F5E6D0" stroke-width="1.3" stroke-linecap="round"/><line x1="16" y1="27" x2="16" y2="35" stroke="#F5E6D0" stroke-width="1.3" stroke-linecap="round"/><line x1="21" y1="26" x2="21" y2="34" stroke="#F5E6D0" stroke-width="1.3" stroke-linecap="round"/><line x1="26" y1="28" x2="26" y2="36" stroke="#F5E6D0" stroke-width="1.3" stroke-linecap="round"/><line x1="31" y1="29" x2="31" y2="37" stroke="#F5E6D0" stroke-width="1.3" stroke-linecap="round"/><line x1="36" y1="30" x2="36" y2="38" stroke="#F5E6D0" stroke-width="1.3" stroke-linecap="round"/><line x1="41" y1="32" x2="41" y2="40" stroke="#F5E6D0" stroke-width="1.3" stroke-linecap="round"/><line x1="46" y1="32" x2="46" y2="40" stroke="#F5E6D0" stroke-width="1.3" stroke-linecap="round"/><line x1="51" y1="31" x2="51" y2="39" stroke="#F5E6D0" stroke-width="1.3" stroke-linecap="round"/></svg>