<svg xmlns="http://www.w3.org/2000/svg" width="32" height="32" viewBox="0 0 64 64"><defs><radialGradient id="s" cx="40%" cy="35%" r="60%"><stop offset="0%" stop-color="#A52A2A" stop-opacity="0.3"/><stop offset="100%" stop-color="#4A0E0E" stop-opacity="0.3"/></radialGradient></defs><circle cx="32" cy="32" r="28" fill="#8B1A1A"/><circle cx="32" cy="32" r="28" fill="url(#s)"/><path d="M31 7 Q25 19.5 31 32 T31 57" fill="none" stroke="#F5E6D0" stroke-width="1.8" stroke-linecap="round"/><path d="M35 7 Q29 19.5 35 32 T35 57" fill="none" stroke="#F5E6D0" stroke-width="1.8" stroke-linecap="round"/><line x1="28" y1="11" x2="36" y2="11" stroke="#F5E6D0" stroke-width="1.3" stroke-linecap="round"/><line x1="27" y1="16" x2="35" y2="16" stroke="#F5E6D0" stroke-width="1.3" stroke-linecap="round"/><line x1="26" y1="21" x2="34" y2="21" stroke="#F5E6D0" stroke-width="1.3" stroke-linecap="round"/><line x1="28" y1="26" x2="36" y2="26" stroke="#F5E6D0" stroke-width="1.3" stroke-linecap="round"/><line x1="29" y1="31" x2="37" y2="31" stroke="#F5E6D0" stroke-width="1.3" stroke-linecap="round"/><line x1="30" y1="36" x2="38" y2="36" stroke="#F5E6D0" stroke-width="1.3" stroke-linecap="round"/><line x1="32" y1="41" x2="40" y2="41" stroke="#F5E6D0" stroke-width="1.3" stroke-linecap="round"/><line x1="32" y1="46" x2="40" y2="46" stroke="#F5E6D0" stroke-width="1.3" stroke-linecap="round"/><line x1="31" y1="51" x2="39" y2="51" stroke="#F5E6D0" stroke-width="1.3" stroke-linecap="round"/></svg>