<svg xmlns="http://www.w3.org/2000/svg" width="32" height="32" viewBox="0 0 64 64"><defs><radialGradient id="s" cx="40%" cy="35%" r="60%"><stop offset="0%" stop-color="#A52A2A" stop-opacity="0.3"/><stop offset="100%" stop-color="#4A0E0E" stop-opacity="0.3"/></radialGradient></defs><circle cx="32" cy="32" r="28" fill="#8B1A1A"/><circle cx="32" cy="32" r="28" fill="url(#s)"/><path d="M14 20 Q24 32 14 44" fill="none" stroke="#F5E6D0" stroke-width="2.2" stroke-linecap="round"/><path d="M50 20 Q40 32 50 44" fill="none" stroke="#F5E6D0" stroke-width="2.2" stroke-linecap="round"/><line x1="11" y1="23" x2="17" y2="25" stroke="#F5E6D0" stroke-width="1.4" stroke-linecap="round"/><line x1="10" y1="28" x2="16" y2="29" stroke="#F5E6D0" stroke-width="1.4" stroke-linecap="round"/><line x1="10" y1="33" x2="15.5" y2="33" stroke="#F5E6D0" stroke-width="1.4" stroke-linecap="round"/><line x1="10" y1="38" x2="16" y2="37" stroke="#F5E6D0" stroke-width="1.4" stroke-linecap="round"/><line x1="11" y1="42" x2="17" y2="40" stroke="#F5E6D0" stroke-width="1.4" stroke-linecap="round"/><line x1="53" y1="23" x2="47" y2="25" stroke="#F5E6D0" stroke-width="1.4" stroke-linecap="round"/><line x1="54" y1="28" x2="48" y2="29" stroke="#F5E6D0" stroke-width="1.4" stroke-linecap="round"/><line x1="54" y1="33" x2="48.5" y2="33" stroke="#F5E6D0" stroke-width="1.4" stroke-linecap="round"/><line x1="54" y1="38" x2="48" y2="37" stroke="#F5E6D0" stroke-width="1.4" stroke-linecap="round"/><line x1="53" y1="42" x2="47" y2="40" stroke="#F5E6D0" stroke-width="1.4" stroke-linecap="round"/></svg>